<?xml version="1.0" standalone="no"?>
<!DOCTYPE svg PUBLIC "-//W3C//DTD SVG 20010904//EN"
 "http://www.w3.org/TR/2001/REC-SVG-20010904/DTD/svg10.dtd">
<svg version="1.0" xmlns="http://www.w3.org/2000/svg"
 width="512.000000pt" height="512.000000pt" viewBox="0 0 512.000000 512.000000"
 preserveAspectRatio="xMidYMid meet">

<g transform="translate(0.000000,512.000000) scale(0.100000,-0.100000)"
fill="#295129" stroke="none">
<path d="M2968 4679 c-264 -23 -501 -139 -689 -336 -210 -221 -309 -489 -296
-801 13 -332 172 -627 447 -833 77 -57 260 -144 355 -169 253 -65 519 -41 752
70 154 73 299 191 404 329 70 92 154 267 186 386 24 90 26 118 26 270 0 154
-2 180 -27 270 -53 196 -169 390 -313 525 -165 155 -401 265 -608 285 -120 11
-152 12 -237 4z m155 -471 c9 -11 17 -35 17 -53 0 -38 14 -52 61 -61 89 -17
152 -78 165 -160 8 -50 -6 -79 -43 -92 -47 -16 -84 7 -97 60 -11 49 -42 60
-127 47 -152 -23 -229 -72 -229 -145 0 -60 63 -104 190 -134 237 -56 350 -143
350 -270 0 -83 -19 -129 -75 -186 -35 -35 -69 -58 -110 -73 -80 -30 -85 -36
-85 -93 0 -39 -5 -54 -25 -73 -13 -14 -33 -25 -43 -25 -32 0 -72 38 -72 69 0
30 -25 71 -43 71 -62 0 -149 59 -173 117 -31 73 -6 143 52 143 41 0 63 -18 74
-61 14 -51 35 -59 124 -48 133 16 216 60 232 123 17 68 -41 111 -212 159 -239
69 -327 139 -328 267 0 118 52 191 180 252 45 21 85 45 88 54 3 9 6 35 6 59 0
35 5 48 27 65 32 25 69 20 96 -12z"/>
<path d="M2035 2056 c-182 -30 -264 -63 -542 -219 l-183 -102 0 -487 c0 -269
2 -488 5 -488 3 0 274 -57 603 -127 l597 -127 175 0 175 0 450 87 c505 98 536
106 655 157 117 50 163 81 425 290 267 212 299 241 328 295 29 55 29 145 0
200 -29 55 -97 118 -163 151 -65 33 -189 44 -267 25 -27 -7 -208 -98 -403
-204 -241 -130 -376 -197 -420 -209 -56 -15 -123 -17 -496 -17 -405 -1 -432 0
-447 17 -20 22 -22 53 -5 70 9 9 82 12 268 12 140 1 286 5 324 9 220 29 348
208 265 371 -22 45 -83 102 -134 128 -53 26 -76 30 -515 108 -414 72 -550 84
-695 60z"/>
<path d="M553 2044 c-56 -20 -126 -84 -155 -142 l-23 -47 0 -605 0 -605 28
-57 c30 -60 78 -106 144 -136 33 -14 73 -17 283 -17 274 0 284 2 337 72 l28
36 3 676 c2 372 0 691 -3 709 -7 40 -59 101 -102 118 -48 20 -482 18 -540 -2z"/>
</g>
</svg>
