<?xml version="1.0" standalone="no"?>
<!DOCTYPE svg PUBLIC "-//W3C//DTD SVG 20010904//EN"
 "http://www.w3.org/TR/2001/REC-SVG-20010904/DTD/svg10.dtd">
<svg version="1.0" xmlns="http://www.w3.org/2000/svg"
 width="512.000000pt" height="512.000000pt" viewBox="0 0 512.000000 512.000000"
 preserveAspectRatio="xMidYMid meet">

<g transform="translate(0.000000,512.000000) scale(0.100000,-0.100000)"
fill="#295129" stroke="none">
<path d="M2510 5113 c-52 -20 -1864 -1131 -1877 -1149 -8 -13 -154 -319 -324
-681 -295 -626 -310 -660 -306 -706 5 -61 30 -96 89 -125 41 -21 50 -22 91
-12 25 7 56 24 70 38 14 15 158 309 320 655 l294 627 834 507 c459 278 841
508 849 510 8 2 393 -226 854 -506 l839 -510 299 -628 c165 -345 311 -640 325
-655 89 -93 253 -20 253 114 0 37 -626 1359 -657 1389 -10 10 -431 268 -936
574 -945 574 -959 582 -1017 558z"/>
<path d="M1831 3996 c-393 -239 -720 -441 -727 -448 -6 -7 -132 -269 -279
-583 -147 -313 -278 -589 -291 -612 -52 -90 -148 -165 -256 -199 l-58 -18 0
-1068 0 -1068 505 0 505 0 0 813 c0 793 1 813 20 845 11 18 34 41 52 52 32 20
53 20 1258 20 1205 0 1226 0 1258 -20 18 -11 41 -34 52 -52 19 -32 20 -52 20
-845 l0 -813 500 0 500 0 0 1069 0 1069 -52 18 c-95 30 -171 85 -230 164 -15
19 -153 301 -308 625 -155 325 -289 597 -298 606 -21 21 -1422 871 -1442 876
-8 1 -336 -193 -729 -431z m1399 -431 c21 -12 44 -39 58 -65 l22 -45 -2 -597
c-3 -585 -3 -597 -24 -624 -11 -15 -33 -37 -48 -48 -27 -21 -39 -21 -669 -24
-717 -3 -686 -5 -735 67 l-22 35 2 618 3 618 36 36 c20 20 52 40 70 44 19 5
313 8 654 7 603 -2 621 -3 655 -22z"/>
<path d="M2110 2875 l0 -405 450 0 450 0 -2 403 -3 402 -447 3 -448 2 0 -405z"/>
<path d="M1936 1421 c5 -5 147 -92 317 -194 l307 -186 322 194 322 195 -639 0
c-367 0 -635 -4 -629 -9z"/>
<path d="M1530 865 c0 -245 3 -444 8 -442 21 12 700 422 714 432 15 10 -33 43
-344 231 -199 120 -365 221 -370 222 -4 2 -8 -197 -8 -443z"/>
<path d="M3217 1088 c-236 -142 -363 -225 -355 -229 7 -5 173 -105 368 -223
l355 -215 3 225 c1 124 1 324 0 445 l-3 219 -368 -222z"/>
<path d="M2239 497 l-316 -192 319 -3 c175 -1 462 -1 638 0 l319 3 -318 193
c-176 105 -321 192 -322 192 -2 -1 -146 -87 -320 -193z"/>
</g>
</svg>
