<?xml version="1.0" standalone="no"?>
<!DOCTYPE svg PUBLIC "-//W3C//DTD SVG 20010904//EN"
 "http://www.w3.org/TR/2001/REC-SVG-20010904/DTD/svg10.dtd">
<svg version="1.0" xmlns="http://www.w3.org/2000/svg"
 width="512.000000pt" height="512.000000pt" viewBox="0 0 512.000000 512.000000"
 preserveAspectRatio="xMidYMid meet">

<g transform="translate(0.000000,512.000000) scale(0.100000,-0.100000)"
fill="#295129" stroke="none">
<path d="M1700 4649 c-712 -48 -1301 -241 -1554 -509 -192 -204 -192 -456 0
-660 246 -261 798 -447 1495 -504 l77 -7 41 76 c431 784 1346 1178 2209 950
52 -14 96 -25 99 -25 2 0 -8 23 -24 52 -178 330 -822 572 -1668 627 -182 12
-491 12 -675 0z"/>
<path d="M3287 3749 c-560 -65 -1052 -412 -1298 -914 -399 -819 -61 -1805 756
-2205 634 -311 1389 -185 1890 315 500 500 626 1254 316 1890 -247 505 -744
854 -1303 914 -109 12 -259 12 -361 0z m253 -609 c52 -27 80 -81 80 -155 l0
-55 171 0 c158 0 174 -2 210 -22 50 -28 84 -93 75 -146 -6 -41 -29 -76 -70
-106 -26 -20 -44 -21 -375 -26 -345 -5 -348 -5 -382 -29 -70 -48 -102 -128
-80 -201 16 -55 74 -117 119 -130 21 -5 107 -10 192 -10 239 0 333 -31 446
-144 96 -96 144 -212 144 -346 0 -223 -169 -427 -391 -471 l-59 -12 0 -54 c0
-72 -28 -127 -80 -153 -51 -26 -93 -25 -142 2 -52 30 -78 80 -78 153 l0 55
-171 0 c-158 0 -174 2 -210 22 -50 28 -84 93 -75 146 6 41 29 76 70 106 26 20
44 21 375 26 l348 5 36 25 c42 28 87 108 87 152 0 70 -66 160 -130 178 -19 5
-107 10 -195 11 -241 0 -346 37 -457 158 -254 277 -106 729 263 802 l59 12 0
56 c1 70 24 116 76 147 48 29 92 30 144 4z"/>
<path d="M0 2857 c0 -276 3 -354 15 -402 78 -296 487 -538 1122 -661 131 -25
404 -64 412 -58 2 2 -3 47 -10 101 -8 58 -14 176 -13 288 1 196 14 307 55 469
11 43 19 80 17 82 -2 1 -53 8 -113 14 -310 31 -676 110 -922 199 -183 67 -369
164 -491 256 l-72 54 0 -342z"/>
<path d="M0 1607 c0 -276 3 -354 15 -402 77 -296 485 -537 1117 -660 354 -69
837 -101 1179 -79 l97 7 -102 75 c-261 193 -489 480 -622 781 l-42 96 -78 7
c-634 57 -1176 225 -1492 463 l-72 54 0 -342z"/>
</g>
</svg>
