<?xml version="1.0" standalone="no"?>
<!DOCTYPE svg PUBLIC "-//W3C//DTD SVG 20010904//EN"
 "http://www.w3.org/TR/2001/REC-SVG-20010904/DTD/svg10.dtd">
<svg version="1.0" xmlns="http://www.w3.org/2000/svg"
 width="512.000000pt" height="512.000000pt" viewBox="0 0 512.000000 512.000000"
 preserveAspectRatio="xMidYMid meet">

<g transform="translate(0.000000,512.000000) scale(0.100000,-0.100000)"
fill="#295129" stroke="none">
<path d="M3083 5106 c-23 -7 -64 -30 -90 -49 -26 -20 -401 -389 -833 -821
l-785 -786 881 0 881 0 374 397 c206 219 405 431 443 471 l70 73 -335 335
c-241 242 -348 343 -384 361 -60 31 -159 40 -222 19z"/>
<path d="M3980 3908 c-140 -149 -295 -313 -343 -364 l-89 -94 234 1 233 1 225
240 c124 132 226 243 228 246 1 4 -51 60 -115 124 l-118 117 -255 -271z"/>
<path d="M4556 3592 l-129 -137 244 -7 c134 -3 259 -11 278 -17 19 -6 36 -9
37 -8 2 2 -65 71 -149 155 l-152 152 -129 -138z"/>
<path d="M241 3139 c-88 -17 -173 -87 -215 -178 l-21 -46 0 -1340 0 -1340 26
-56 c31 -66 84 -120 148 -151 l46 -23 2335 0 2335 0 46 23 c63 31 117 86 148
152 l26 55 0 1340 0 1340 -28 57 c-32 65 -89 121 -156 152 l-46 21 -2300 1
c-1265 1 -2320 -2 -2344 -7z m1146 -604 c59 -25 96 -59 128 -116 l30 -54 0
-280 0 -280 -30 -54 c-16 -29 -43 -64 -60 -77 -70 -53 -80 -54 -438 -54 l-333
0 -55 28 c-61 31 -113 92 -129 153 -7 26 -10 137 -8 307 3 254 4 269 25 309
26 48 86 102 134 119 24 9 132 13 367 13 277 1 339 -2 369 -14z m-177 -1735
l0 -150 -370 0 -370 0 0 150 0 150 370 0 370 0 0 -150z m1150 0 l0 -150 -370
0 -370 0 0 150 0 150 370 0 370 0 0 -150z m1140 0 l0 -150 -370 0 -370 0 0
150 0 150 370 0 370 0 0 -150z m1150 0 l0 -150 -370 0 -370 0 0 150 0 150 370
0 370 0 0 -150z"/>
<path d="M790 2085 l0 -165 230 0 230 0 0 165 0 165 -230 0 -230 0 0 -165z"/>
</g>
</svg>
