<?xml version="1.0" standalone="no"?>
<!DOCTYPE svg PUBLIC "-//W3C//DTD SVG 20010904//EN"
 "http://www.w3.org/TR/2001/REC-SVG-20010904/DTD/svg10.dtd">
<svg version="1.0" xmlns="http://www.w3.org/2000/svg"
 width="512.000000pt" height="512.000000pt" viewBox="0 0 512.000000 512.000000"
 preserveAspectRatio="xMidYMid meet">

<g transform="translate(0.000000,512.000000) scale(0.100000,-0.100000)"
fill="#295129" stroke="none">
<path d="M227 4764 l-227 -226 2 -1897 3 -1896 23 -70 c45 -133 100 -223 192
-315 88 -88 157 -135 260 -177 135 -54 102 -53 1565 -53 l1354 0 -26 58 c-55
125 -53 18 -54 2272 l-1 2085 -229 224 -230 225 -149 -149 -150 -150 -150 150
-150 150 -150 -150 -150 -150 -150 150 -150 150 -150 -150 -150 -150 -150 150
-150 150 -150 -150 -150 -150 -148 148 c-81 81 -149 147 -152 147 -3 0 -107
-102 -233 -226z m1583 -898 l0 -165 60 -32 c133 -71 239 -231 240 -361 l0 -28
-149 0 -148 0 -6 30 c-9 44 -65 99 -110 110 -135 30 -240 -127 -156 -234 30
-38 68 -54 145 -62 234 -24 402 -189 421 -414 15 -175 -86 -353 -245 -434
l-52 -26 0 -160 0 -160 -150 0 -150 0 0 163 0 162 -43 18 c-24 10 -69 40 -99
67 -89 80 -138 171 -154 289 l-7 51 152 0 c129 0 151 -2 151 -15 0 -9 9 -34
20 -56 73 -142 293 -79 277 80 -9 86 -64 127 -187 141 -108 12 -192 52 -271
126 -219 210 -167 570 102 714 l59 31 0 165 0 164 150 0 150 0 0 -164z m-900
-2386 l0 -150 -150 0 -150 0 0 150 0 150 150 0 150 0 0 -150z m1800 0 l0 -150
-750 0 -750 0 0 150 0 150 750 0 750 0 0 -150z m-1800 -600 l0 -150 -150 0
-150 0 0 150 0 150 150 0 150 0 0 -150z m1800 0 l0 -150 -750 0 -750 0 0 150
0 150 750 0 750 0 0 -150z"/>
<path d="M3622 1743 l3 -1388 28 -57 c30 -61 74 -105 140 -140 60 -33 194 -33
254 0 66 35 110 79 140 140 l28 57 5 1295 c6 1386 3 1318 56 1422 13 26 24 50
24 53 0 3 -153 5 -340 5 l-340 0 2 -1387z"/>
<path d="M4723 3111 c-73 -25 -136 -80 -170 -149 l-28 -57 -3 -937 -2 -938
300 0 300 0 -2 938 -3 937 -29 58 c-65 133 -222 197 -363 148z"/>
</g>
</svg>
